<svg width="145" height="55" viewBox="0 0 145 55" fill="none" xmlns="http://www.w3.org/2000/svg">
<path d="M66.3864 27.1818C66.3864 28.4242 66.1591 29.4924 65.7045 30.3864C65.25 31.2765 64.6269 31.9621 63.8352 32.4432C63.0473 32.9205 62.1515 33.1591 61.1477 33.1591C60.1402 33.1591 59.2405 32.9205 58.4489 32.4432C57.661 31.9621 57.0398 31.2746 56.5852 30.3807C56.1307 29.4867 55.9034 28.4205 55.9034 27.1818C55.9034 25.9394 56.1307 24.8731 56.5852 23.983C57.0398 23.089 57.661 22.4034 58.4489 21.9261C59.2405 21.4451 60.1402 21.2045 61.1477 21.2045C62.1515 21.2045 63.0473 21.4451 63.8352 21.9261C64.6269 22.4034 65.25 23.089 65.7045 23.983C66.1591 24.8731 66.3864 25.9394 66.3864 27.1818ZM64.6477 27.1818C64.6477 26.2348 64.4943 25.4375 64.1875 24.7898C63.8845 24.1383 63.4678 23.6458 62.9375 23.3125C62.411 22.9754 61.8144 22.8068 61.1477 22.8068C60.4773 22.8068 59.8788 22.9754 59.3523 23.3125C58.8258 23.6458 58.4091 24.1383 58.1023 24.7898C57.7992 25.4375 57.6477 26.2348 57.6477 27.1818C57.6477 28.1288 57.7992 28.928 58.1023 29.5795C58.4091 30.2273 58.8258 30.7197 59.3523 31.0568C59.8788 31.3902 60.4773 31.5568 61.1477 31.5568C61.8144 31.5568 62.411 31.3902 62.9375 31.0568C63.4678 30.7197 63.8845 30.2273 64.1875 29.5795C64.4943 28.928 64.6477 28.1288 64.6477 27.1818ZM68.4389 36.2727V24.2727H70.098V25.6875H70.2401C70.3385 25.5057 70.4806 25.2955 70.6662 25.0568C70.8518 24.8182 71.1094 24.6098 71.4389 24.4318C71.7685 24.25 72.2041 24.1591 72.7457 24.1591C73.4503 24.1591 74.0791 24.3371 74.6321 24.6932C75.1851 25.0492 75.6188 25.5625 75.9332 26.233C76.2514 26.9034 76.4105 27.7102 76.4105 28.6534C76.4105 29.5966 76.2533 30.4053 75.9389 31.0795C75.6245 31.75 75.1927 32.267 74.6435 32.6307C74.0942 32.9905 73.4673 33.1705 72.7628 33.1705C72.2325 33.1705 71.7988 33.0814 71.4616 32.9034C71.1283 32.7254 70.867 32.517 70.6776 32.2784C70.4882 32.0398 70.3423 31.8277 70.2401 31.642H70.1378V36.2727H68.4389ZM70.1037 28.6364C70.1037 29.25 70.1927 29.7879 70.3707 30.25C70.5488 30.7121 70.8063 31.0739 71.1435 31.3352C71.4806 31.5928 71.8935 31.7216 72.3821 31.7216C72.8897 31.7216 73.3139 31.5871 73.6548 31.3182C73.9957 31.0455 74.2533 30.6761 74.4276 30.2102C74.6056 29.7443 74.6946 29.2197 74.6946 28.6364C74.6946 28.0606 74.6075 27.5436 74.4332 27.0852C74.2628 26.6269 74.0052 26.2652 73.6605 26C73.3196 25.7348 72.8935 25.6023 72.3821 25.6023C71.8897 25.6023 71.473 25.7292 71.1321 25.983C70.795 26.2367 70.5393 26.5909 70.3651 27.0455C70.1908 27.5 70.1037 28.0303 70.1037 28.6364ZM82.0753 33.1761C81.2154 33.1761 80.4749 32.9924 79.8537 32.625C79.2363 32.2538 78.759 31.733 78.4219 31.0625C78.0885 30.3883 77.9219 29.5985 77.9219 28.6932C77.9219 27.7992 78.0885 27.0114 78.4219 26.3295C78.759 25.6477 79.2287 25.1155 79.831 24.733C80.437 24.3504 81.1454 24.1591 81.956 24.1591C82.4484 24.1591 82.9257 24.2405 83.3878 24.4034C83.8499 24.5663 84.2647 24.822 84.6321 25.1705C84.9995 25.5189 85.2893 25.9716 85.5014 26.5284C85.7135 27.0814 85.8196 27.7538 85.8196 28.5455V29.1477H78.8821V27.875H84.1548C84.1548 27.428 84.0639 27.0322 83.8821 26.6875C83.7003 26.339 83.4446 26.0644 83.1151 25.8636C82.7893 25.6629 82.4067 25.5625 81.9673 25.5625C81.4901 25.5625 81.0734 25.6799 80.7173 25.9148C80.3651 26.1458 80.0923 26.4489 79.8991 26.8239C79.7098 27.1951 79.6151 27.5985 79.6151 28.0341V29.0284C79.6151 29.6117 79.7173 30.108 79.9219 30.517C80.1302 30.9261 80.42 31.2386 80.7912 31.4545C81.1624 31.6667 81.5961 31.7727 82.0923 31.7727C82.4143 31.7727 82.7079 31.7273 82.973 31.6364C83.2382 31.5417 83.4673 31.4015 83.6605 31.2159C83.8537 31.0303 84.0014 30.8011 84.1037 30.5284L85.7116 30.8182C85.5829 31.2917 85.3518 31.7064 85.0185 32.0625C84.6889 32.4148 84.2741 32.6894 83.7741 32.8864C83.2779 33.0795 82.7116 33.1761 82.0753 33.1761ZM89.4034 27.8182V33H87.7045V24.2727H89.3352V25.6932H89.4432C89.6439 25.2311 89.9583 24.8598 90.3864 24.5795C90.8182 24.2992 91.3617 24.1591 92.017 24.1591C92.6117 24.1591 93.1326 24.2841 93.5795 24.5341C94.0265 24.7803 94.3731 25.1477 94.6193 25.6364C94.8655 26.125 94.9886 26.7292 94.9886 27.4489V33H93.2898V27.6534C93.2898 27.0208 93.125 26.5265 92.7955 26.1705C92.4659 25.8106 92.0133 25.6307 91.4375 25.6307C91.0436 25.6307 90.6932 25.7159 90.3864 25.8864C90.0833 26.0568 89.8428 26.3068 89.6648 26.6364C89.4905 26.9621 89.4034 27.3561 89.4034 27.8182ZM97.608 21.3636L100.847 30.8409H100.977L104.216 21.3636H106.114L101.926 33H99.8977L95.7102 21.3636H97.608ZM107.658 33V24.2727H109.357V33H107.658ZM108.516 22.9261C108.22 22.9261 107.966 22.8277 107.754 22.6307C107.546 22.4299 107.442 22.1913 107.442 21.9148C107.442 21.6345 107.546 21.3958 107.754 21.1989C107.966 20.9981 108.22 20.8977 108.516 20.8977C108.811 20.8977 109.063 20.9981 109.271 21.1989C109.483 21.3958 109.589 21.6345 109.589 21.9148C109.589 22.1913 109.483 22.4299 109.271 22.6307C109.063 22.8277 108.811 22.9261 108.516 22.9261ZM111.778 33V21.3636H113.477V25.6875H113.58C113.678 25.5057 113.82 25.2955 114.006 25.0568C114.191 24.8182 114.449 24.6098 114.778 24.4318C115.108 24.25 115.544 24.1591 116.085 24.1591C116.79 24.1591 117.419 24.3371 117.972 24.6932C118.525 25.0492 118.958 25.5625 119.273 26.233C119.591 26.9034 119.75 27.7102 119.75 28.6534C119.75 29.5966 119.593 30.4053 119.278 31.0795C118.964 31.75 118.532 32.267 117.983 32.6307C117.434 32.9905 116.807 33.1705 116.102 33.1705C115.572 33.1705 115.138 33.0814 114.801 32.9034C114.468 32.7254 114.206 32.517 114.017 32.2784C113.828 32.0398 113.682 31.8277 113.58 31.642H113.438V33H111.778ZM113.443 28.6364C113.443 29.25 113.532 29.7879 113.71 30.25C113.888 30.7121 114.146 31.0739 114.483 31.3352C114.82 31.5928 115.233 31.7216 115.722 31.7216C116.229 31.7216 116.653 31.5871 116.994 31.3182C117.335 31.0455 117.593 30.6761 117.767 30.2102C117.945 29.7443 118.034 29.2197 118.034 28.6364C118.034 28.0606 117.947 27.5436 117.773 27.0852C117.602 26.6269 117.345 26.2652 117 26C116.659 25.7348 116.233 25.6023 115.722 25.6023C115.229 25.6023 114.812 25.7292 114.472 25.983C114.134 26.2367 113.879 26.5909 113.705 27.0455C113.53 27.5 113.443 28.0303 113.443 28.6364ZM125.419 33.1761C124.559 33.1761 123.819 32.9924 123.197 32.625C122.58 32.2538 122.103 31.733 121.766 31.0625C121.432 30.3883 121.266 29.5985 121.266 28.6932C121.266 27.7992 121.432 27.0114 121.766 26.3295C122.103 25.6477 122.572 25.1155 123.175 24.733C123.781 24.3504 124.489 24.1591 125.3 24.1591C125.792 24.1591 126.269 24.2405 126.732 24.4034C127.194 24.5663 127.608 24.822 127.976 25.1705C128.343 25.5189 128.633 25.9716 128.845 26.5284C129.057 27.0814 129.163 27.7538 129.163 28.5455V29.1477H122.226V27.875H127.499C127.499 27.428 127.408 27.0322 127.226 26.6875C127.044 26.339 126.788 26.0644 126.459 25.8636C126.133 25.6629 125.75 25.5625 125.311 25.5625C124.834 25.5625 124.417 25.6799 124.061 25.9148C123.709 26.1458 123.436 26.4489 123.243 26.8239C123.054 27.1951 122.959 27.5985 122.959 28.0341V29.0284C122.959 29.6117 123.061 30.108 123.266 30.517C123.474 30.9261 123.764 31.2386 124.135 31.4545C124.506 31.6667 124.94 31.7727 125.436 31.7727C125.758 31.7727 126.052 31.7273 126.317 31.6364C126.582 31.5417 126.811 31.4015 127.004 31.2159C127.197 31.0303 127.345 30.8011 127.447 30.5284L129.055 30.8182C128.927 31.2917 128.696 31.7064 128.362 32.0625C128.033 32.4148 127.618 32.6894 127.118 32.8864C126.622 33.0795 126.055 33.1761 125.419 33.1761Z" fill="white"/>
<path d="M36.7326 15.0042C36.4786 15.06 36.2521 15.206 36.0931 15.4163C35.9341 15.6267 35.8529 15.8879 35.8639 16.1536V38.6909C35.8381 38.8522 35.8469 39.0172 35.8896 39.1747C35.9322 39.3321 36.0079 39.4782 36.1112 39.6027C36.2145 39.7272 36.343 39.8273 36.4878 39.8959C36.6326 39.9645 36.7903 40 36.9498 40C37.1094 40 37.267 39.9645 37.4118 39.8959C37.5566 39.8273 37.6851 39.7272 37.7884 39.6027C37.8917 39.4782 37.9674 39.3321 38.0101 39.1747C38.0528 39.0172 38.0615 38.8522 38.0357 38.6909V16.1536C38.0394 15.9952 38.0104 15.8378 37.9506 15.6916C37.8909 15.5455 37.8017 15.4138 37.6889 15.3054C37.5761 15.1969 37.4422 15.114 37.296 15.0621C37.1498 15.0102 36.9945 14.9905 36.8403 15.0042C36.8045 15.0024 36.7685 15.0024 36.7326 15.0042V15.0042ZM22.833 16.1904C22.579 16.2462 22.3525 16.3921 22.1935 16.6025C22.0345 16.8129 21.9533 17.074 21.9643 17.3398V37.5048C21.9385 37.666 21.9472 37.8311 21.9899 37.9885C22.0326 38.1459 22.1083 38.292 22.2116 38.4165C22.3149 38.541 22.4434 38.6411 22.5882 38.7097C22.733 38.7783 22.8906 38.8138 23.0502 38.8138C23.2098 38.8138 23.3674 38.7783 23.5122 38.7097C23.657 38.6411 23.7855 38.541 23.8888 38.4165C23.9921 38.292 24.0678 38.1459 24.1104 37.9885C24.1531 37.8311 24.1619 37.666 24.1361 37.5048V17.3398C24.1398 17.1814 24.1108 17.024 24.051 16.8778C23.9913 16.7316 23.9021 16.6 23.7892 16.4915C23.6764 16.3831 23.5426 16.3002 23.3964 16.2483C23.2501 16.1964 23.0949 16.1767 22.9407 16.1904C22.9048 16.1886 22.8689 16.1886 22.833 16.1904V16.1904ZM33.2577 19.7489C33.0037 19.8047 32.7772 19.9507 32.6182 20.161C32.4592 20.3714 32.378 20.6326 32.389 20.8983V33.9462C32.3626 34.1077 32.371 34.2731 32.4134 34.4309C32.4558 34.5888 32.5312 34.7353 32.6345 34.8602C32.7378 34.9851 32.8665 35.0855 33.0115 35.1544C33.1565 35.2232 33.3145 35.2589 33.4743 35.2589C33.6342 35.2589 33.7921 35.2232 33.9371 35.1544C34.0822 35.0855 34.2108 34.9851 34.3141 34.8602C34.4174 34.7353 34.4929 34.5888 34.5353 34.4309C34.5777 34.2731 34.586 34.1077 34.5597 33.9462V20.8983C34.5633 20.7401 34.5344 20.5829 34.4747 20.4369C34.4151 20.2909 34.3261 20.1594 34.2136 20.051C34.101 19.9426 33.9674 19.8596 33.8215 19.8076C33.6756 19.7555 33.5206 19.7356 33.3666 19.7489C33.3299 19.747 33.2932 19.747 33.2566 19.7489H33.2577ZM19.3581 20.9351C19.1041 20.9909 18.8776 21.1368 18.7186 21.3472C18.5596 21.5576 18.4784 21.8187 18.4894 22.0845V32.7601C18.463 32.9215 18.4713 33.0869 18.5137 33.2448C18.5562 33.4026 18.6316 33.5491 18.7349 33.674C18.8382 33.799 18.9669 33.8993 19.1119 33.9682C19.2569 34.037 19.4149 34.0727 19.5747 34.0727C19.7346 34.0727 19.8925 34.037 20.0375 33.9682C20.1826 33.8993 20.3112 33.799 20.4145 33.674C20.5178 33.5491 20.5933 33.4026 20.6357 33.2448C20.6781 33.0869 20.6864 32.9215 20.66 32.7601V22.0845C20.6637 21.9263 20.6347 21.7691 20.5751 21.6231C20.5155 21.4771 20.4265 21.3456 20.314 21.2372C20.2014 21.1288 20.0678 21.0458 19.9219 20.9938C19.776 20.9417 19.621 20.9217 19.467 20.9351C19.4303 20.9332 19.3936 20.9332 19.357 20.9351H19.3581ZM26.3079 22.1213C26.0539 22.177 25.8274 22.323 25.6684 22.5334C25.5094 22.7437 25.4282 23.0049 25.4392 23.2707V31.5739C25.4128 31.7354 25.4211 31.9008 25.4636 32.0586C25.506 32.2164 25.5814 32.3629 25.6847 32.4879C25.788 32.6128 25.9167 32.7132 26.0617 32.782C26.2067 32.8509 26.3647 32.8865 26.5245 32.8865C26.6844 32.8865 26.8423 32.8509 26.9873 32.782C27.1324 32.7132 27.261 32.6128 27.3643 32.4879C27.4676 32.3629 27.5431 32.2164 27.5855 32.0586C27.6279 31.9008 27.6362 31.7354 27.6098 31.5739V23.2707C27.6135 23.1125 27.5846 22.9553 27.5249 22.8093C27.4653 22.6633 27.3763 22.5318 27.2638 22.4234C27.1512 22.3149 27.0176 22.232 26.8717 22.1799C26.7258 22.1279 26.5708 22.1079 26.4168 22.1213C26.3801 22.1194 26.3434 22.1194 26.3068 22.1213H26.3079ZM40.2075 22.1213C39.9535 22.177 39.727 22.323 39.568 22.5334C39.409 22.7437 39.3278 23.0049 39.3388 23.2707V31.5739C39.313 31.7351 39.3218 31.9002 39.3645 32.0576C39.4072 32.2151 39.4828 32.3611 39.5861 32.4857C39.6894 32.6102 39.8179 32.7102 39.9627 32.7788C40.1075 32.8474 40.2652 32.883 40.4247 32.883C40.5843 32.883 40.7419 32.8474 40.8867 32.7788C41.0315 32.7102 41.16 32.6102 41.2633 32.4857C41.3666 32.3611 41.4423 32.2151 41.485 32.0576C41.5277 31.9002 41.5364 31.7351 41.5106 31.5739V23.2707C41.5143 23.1123 41.4853 22.9548 41.4255 22.8087C41.3658 22.6625 41.2766 22.5309 41.1638 22.4224C41.051 22.3139 40.9171 22.2311 40.7709 22.1792C40.6247 22.1273 40.4694 22.1076 40.3153 22.1213C40.2794 22.1195 40.2434 22.1195 40.2075 22.1213ZM15.8832 24.4936C15.6292 24.5494 15.4027 24.6954 15.2437 24.9057C15.0847 25.1161 15.0035 25.3773 15.0145 25.643V29.2015C14.9887 29.3628 14.9974 29.5279 15.0401 29.6853C15.0828 29.8427 15.1584 29.9888 15.2617 30.1133C15.365 30.2378 15.4936 30.3379 15.6384 30.4065C15.7832 30.4751 15.9408 30.5106 16.1004 30.5106C16.2599 30.5106 16.4176 30.4751 16.5624 30.4065C16.7072 30.3379 16.8357 30.2378 16.939 30.1133C17.0423 29.9888 17.1179 29.8427 17.1606 29.6853C17.2033 29.5279 17.2121 29.3628 17.1863 29.2015V25.643C17.19 25.4846 17.161 25.3272 17.1012 25.181C17.0414 25.0348 16.9522 24.9032 16.8394 24.7948C16.7266 24.6863 16.5928 24.6034 16.4465 24.5515C16.3003 24.4996 16.1451 24.4799 15.9909 24.4936C15.9547 24.4918 15.9183 24.4918 15.882 24.4936H15.8832ZM29.7828 24.4936C29.5288 24.5494 29.3023 24.6954 29.1433 24.9057C28.9843 25.1161 28.9031 25.3773 28.9141 25.643V29.2015C28.8877 29.363 28.8961 29.5284 28.9385 29.6863C28.9809 29.8441 29.0563 29.9906 29.1596 30.1155C29.2629 30.2404 29.3916 30.3408 29.5366 30.4097C29.6816 30.4785 29.8396 30.5142 29.9994 30.5142C30.1593 30.5142 30.3172 30.4785 30.4622 30.4097C30.6073 30.3408 30.7359 30.2404 30.8392 30.1155C30.9425 29.9906 31.018 29.8441 31.0604 29.6863C31.1028 29.5284 31.1111 29.363 31.0848 29.2015V25.643C31.0884 25.4848 31.0595 25.3276 30.9998 25.1816C30.9402 25.0356 30.8512 24.9041 30.7387 24.7957C30.6261 24.6873 30.4925 24.6043 30.3466 24.5523C30.2007 24.5002 30.0457 24.4803 29.8917 24.4936C29.855 24.4917 29.8183 24.4917 29.7817 24.4936H29.7828ZM43.6824 24.4936C43.4284 24.5494 43.2019 24.6954 43.0429 24.9057C42.8839 25.1161 42.8027 25.3773 42.8137 25.643V29.2015C42.7879 29.3628 42.7967 29.5279 42.8394 29.6853C42.8821 29.8427 42.9577 29.9888 43.061 30.1133C43.1643 30.2378 43.2928 30.3379 43.4376 30.4065C43.5824 30.4751 43.7401 30.5106 43.8996 30.5106C44.0592 30.5106 44.2168 30.4751 44.3616 30.4065C44.5064 30.3379 44.635 30.2378 44.7383 30.1133C44.8416 29.9888 44.9172 29.8427 44.9599 29.6853C45.0026 29.5279 45.0113 29.3628 44.9855 29.2015V25.643C44.9892 25.4846 44.9602 25.3272 44.9004 25.181C44.8407 25.0348 44.7515 24.9032 44.6387 24.7948C44.5259 24.6863 44.392 24.6034 44.2458 24.5515C44.0996 24.4996 43.9443 24.4799 43.7902 24.4936C43.7543 24.4918 43.7183 24.4918 43.6824 24.4936Z" fill="white"/>
</svg>
